<svg width="48" height="34" viewBox="0 0 48 34" fill="none" xmlns="http://www.w3.org/2000/svg">
<path d="M46.7131 5.54888C46.1679 3.49593 44.5615 1.87909 42.5218 1.33039C38.8247 0.333344 24 0.333344 24 0.333344C24 0.333344 9.17534 0.333344 5.47821 1.33039C3.43854 1.87918 1.83212 3.49593 1.28689 5.54888C0.296265 9.26997 0.296265 17.0337 0.296265 17.0337C0.296265 17.0337 0.296265 24.7974 1.28689 28.5185C1.83212 30.5714 3.43854 32.1209 5.47821 32.6696C9.17534 33.6667 24 33.6667 24 33.6667C24 33.6667 38.8246 33.6667 42.5218 32.6696C44.5615 32.1209 46.1679 30.5714 46.7131 28.5185C47.7037 24.7974 47.7037 17.0337 47.7037 17.0337C47.7037 17.0337 47.7037 9.26997 46.7131 5.54888ZM19.1515 24.0826V9.98482L31.542 17.0339L19.1515 24.0826Z" fill="black"/>
</svg>
