<svg width="59" height="50" viewBox="0 0 59 50" fill="none" xmlns="http://www.w3.org/2000/svg">
<path d="M52.3768 12.4609C52.4136 13.0077 52.4136 13.5547 52.4136 14.1016C52.4136 30.7812 40.4362 50 18.5448 50C11.8005 50 5.5354 47.9296 0.265259 44.336C1.2235 44.4531 2.14475 44.4922 3.13986 44.4922C8.70472 44.4922 13.8275 42.5001 17.9183 39.1016C12.685 38.9844 8.2994 35.3516 6.78836 30.3516C7.5255 30.4687 8.26253 30.5468 9.03654 30.5468C10.1053 30.5468 11.1741 30.3905 12.1691 30.1172C6.71473 28.9452 2.62382 23.8672 2.62382 17.7344V17.5782C4.20848 18.5157 6.05133 19.1016 8.00445 19.1796C4.79814 16.914 2.69755 13.0468 2.69755 8.67179C2.69755 6.32808 3.28711 4.17964 4.31908 2.30463C10.1789 9.96087 18.987 14.9608 28.8638 15.5078C28.6796 14.5703 28.569 13.5938 28.569 12.6172C28.569 5.664 33.876 0 40.4728 0C43.9002 0 46.9959 1.52343 49.1704 3.98437C51.8606 3.43752 54.4404 2.38278 56.7254 0.937507C55.8408 3.86726 53.9613 6.3282 51.4922 7.89059C53.8877 7.61729 56.2095 6.91401 58.347 5.93754C56.7257 8.43744 54.6986 10.6639 52.3768 12.4609Z" fill="black"/>
</svg>
