<svg width="51" height="50" viewBox="0 0 51 50" fill="none" xmlns="http://www.w3.org/2000/svg">
<path d="M25.2708 12.1806C18.1766 12.1806 12.4543 17.9042 12.4543 25C12.4543 32.0958 18.1766 37.8194 25.2708 37.8194C32.3651 37.8194 38.0873 32.0958 38.0873 25C38.0873 17.9042 32.3651 12.1806 25.2708 12.1806ZM25.2708 33.3343C20.6863 33.3343 16.9384 29.5967 16.9384 25C16.9384 20.4033 20.6752 16.6657 25.2708 16.6657C29.8665 16.6657 33.6032 20.4033 33.6032 25C33.6032 29.5967 29.8553 33.3343 25.2708 33.3343ZM41.601 11.6563C41.601 13.3186 40.2625 14.6463 38.6116 14.6463C36.9496 14.6463 35.6222 13.3075 35.6222 11.6563C35.6222 10.005 36.9607 8.66618 38.6116 8.66618C40.2625 8.66618 41.601 10.005 41.601 11.6563ZM50.0896 14.691C49.8999 10.6856 48.9853 7.13768 46.0516 4.21455C43.1292 1.29142 39.582 0.376548 35.5776 0.175722C31.4504 -0.0585741 19.0801 -0.0585741 14.9529 0.175722C10.9596 0.365391 7.4125 1.28026 4.47887 4.20339C1.54524 7.12652 0.641723 10.6744 0.440942 14.6798C0.206698 18.8079 0.206698 31.181 0.440942 35.309C0.630568 39.3144 1.54524 42.8623 4.47887 45.7855C7.4125 48.7086 10.9485 49.6235 14.9529 49.8243C19.0801 50.0586 31.4504 50.0586 35.5776 49.8243C39.582 49.6346 43.1292 48.7197 46.0516 45.7855C48.9741 42.8623 49.8888 39.3144 50.0896 35.309C50.3238 31.181 50.3238 18.819 50.0896 14.691ZM44.7577 39.7384C43.8877 41.9251 42.2034 43.6098 40.0059 44.4912C36.7153 45.7966 28.9072 45.4954 25.2708 45.4954C21.6345 45.4954 13.8152 45.7855 10.5358 44.4912C8.34947 43.621 6.66515 41.9363 5.78394 39.7384C4.47887 36.4471 4.78004 28.6372 4.78004 25C4.78004 21.3628 4.49002 13.5418 5.78394 10.2616C6.65399 8.07486 8.33832 6.39016 10.5358 5.50876C13.8263 4.20339 21.6345 4.50463 25.2708 4.50463C28.9072 4.50463 36.7265 4.21455 40.0059 5.50876C42.1922 6.379 43.8765 8.06371 44.7577 10.2616C46.0628 13.5529 45.7616 21.3628 45.7616 25C45.7616 28.6372 46.0628 36.4582 44.7577 39.7384Z" fill="black"/>
</svg>
